<?xml version="1.0" encoding="utf-8"?>
<!-- Generator: Adobe Illustrator 19.0.0, SVG Export Plug-In . SVG Version: 6.00 Build 0)  -->
<svg version="1.1" id="Layer_1" xmlns="http://www.w3.org/2000/svg" xmlns:xlink="http://www.w3.org/1999/xlink" x="0px" y="0px"
	 viewBox="0 0 94 100" style="enable-background:new 0 0 94 100;" xml:space="preserve">
<style type="text/css">
	.st0{fill:#FFFFFF;}
</style>
<g id="XMLID_2_">
	<path id="XMLID_16_" class="st0" d="M47,2C22.1,2,1.8,22.3,1.8,47.2c0,22,15.7,40.7,37.4,44.5l1.2,0.2V63.6h5.2c7.2,0,13-2,17.3-6
		c4.3-4,6.5-9.1,6.5-15.4c0-6.2-2-11.1-5.9-14.6c-3.9-3.4-9.3-5.2-16.3-5.2H31v57.2C18.7,73.6,10.8,61,10.8,47.2
		C10.8,27.3,27,11,47,11s36.2,16.2,36.2,36.2c0,15.5-9.7,29.1-24.2,34.2v-6.9L44.2,86.2L59,98v-7.2c19.6-5.4,33.2-23.2,33.2-43.6
		C92.2,22.3,71.9,2,47,2z M56,51.6c-2.5,2.1-6.2,3.2-11,3.2h-4.6V31.2h5.5c9.2,0,13.7,3.7,13.7,11.4C59.6,46.5,58.4,49.5,56,51.6z"
		/>
</g>
</svg>
