<?xml version="1.0" encoding="utf-8"?>
<!-- Generator: Adobe Illustrator 19.0.0, SVG Export Plug-In . SVG Version: 6.00 Build 0)  -->
<svg version="1.1" id="Layer_1" xmlns="http://www.w3.org/2000/svg" xmlns:xlink="http://www.w3.org/1999/xlink" x="0px" y="0px"
	 viewBox="0 0 200 200" style="enable-background:new 0 0 200 200;" xml:space="preserve">
<style type="text/css">
	.st0{fill:#FFFFFF;}
	.st1{fill:#4587FF;}
	.st2{fill:#6D0B0B;}
</style>
<rect id="XMLID_56_" class="st0" width="200" height="200"/>
<path id="XMLID_61_" class="st1" d="M107.6,41.3c-5-5-10-4.9-15.1,0.1C75.2,58.6,58.1,75.8,40.9,93c-5.1,5.2-5,10.1,0.1,15.4
	c0.6,0.7,1.3,1.3,1.9,1.9c5.9,5.9,11,5.8,16.8-0.2C68.6,101,77.4,91.8,87,81.7c0,2.8,0,4.4,0,6.1c0,21.4,0,42.8,0,64.2
	c0,3.9,0.5,7.8,4,10.1c5.2,3.5,11.2,3,16.6,0.9c4.9-1.9,5.5-6.7,5.5-11.5c-0.1-21.4,0-42.8,0-64.2c0-1.5,0-3.1,0-5.6
	c9.8,10.2,18.7,19.5,27.7,28.8c5.4,5.6,10.5,5.6,16.1,0.1c1-1,2-1.9,2.9-2.9c4.1-4.5,4.2-9.9,0-14.2C142.4,76.1,125,58.7,107.6,41.3
	z"/>
<path id="XMLID_38_" class="st2" d="M-451.6,117.9c-0.5-55.4,45.3-103.1,102.3-104.5c56.4-1.5,104.4,42.4,107.8,99
	c3.6,60.5-44.9,109.9-102.3,111.3C-401.8,225.2-452.2,178.2-451.6,117.9z M-360.2,99.1c0,3,0,4.7,0,6.4c0,22.7,0,45.4,0,68.1
	c0,4.2,0.5,8.3,4.2,10.7c5.6,3.7,11.8,3.2,17.6,0.9c5.2-2,5.9-7.1,5.9-12.2c-0.1-22.7,0-45.4,0-68.1c0-1.6,0-3.3,0-5.9
	c10.4,10.8,19.8,20.7,29.3,30.5c5.7,5.9,11.2,5.9,17.1,0.1c1-1,2.1-2,3-3.1c4.4-4.8,4.5-10.5,0-15c-18.4-18.5-36.8-37-55.3-55.4
	c-5.3-5.3-10.6-5.2-16,0.1c-18.3,18.2-36.5,36.4-54.6,54.6c-5.4,5.5-5.3,10.7,0.1,16.4c0.7,0.7,1.3,1.4,2,2.1
	c6.3,6.2,11.6,6.2,17.8-0.2C-379.8,119.5-370.5,109.7-360.2,99.1z"/>
</svg>
