<?xml version="1.0" encoding="utf-8"?>
<!-- Generator: Adobe Illustrator 19.0.0, SVG Export Plug-In . SVG Version: 6.00 Build 0)  -->
<svg version="1.1" id="Layer_1" xmlns="http://www.w3.org/2000/svg" xmlns:xlink="http://www.w3.org/1999/xlink" x="0px" y="0px"
	 viewBox="0 0 200 200" style="enable-background:new 0 0 200 200;" xml:space="preserve">
<style type="text/css">
	.st0{fill:#FFFFFF;}
	.st1{fill:#4587FF;}
	.st2{fill:#6D0B0B;}
</style>
<rect id="XMLID_56_" class="st0" width="200" height="200"/>
<path id="XMLID_85_" class="st1" d="M-115.9,19.8c-5-5-10-4.9-15.1,0.1c-17.2,17.1-34.4,34.3-51.5,51.5c-5.1,5.2-5,10.1,0.1,15.4
	c0.6,0.7,1.3,1.3,1.9,1.9c5.9,5.9,11,5.8,16.8-0.2c8.8-9.2,17.6-18.4,27.3-28.4c0,2.8,0,4.4,0,6.1c0,21.4,0,42.8,0,64.2
	c0,3.9,0.5,7.8,4,10.1c5.2,3.5,11.2,3,16.6,0.9c4.9-1.9,5.5-6.7,5.5-11.5c-0.1-21.4,0-42.8,0-64.2c0-1.5,0-3.1,0-5.6
	c9.8,10.2,18.7,19.5,27.7,28.8c5.4,5.6,10.5,5.6,16.1,0.1c1-1,2-1.9,2.9-2.9c4.1-4.5,4.2-9.9,0-14.2
	C-81.1,54.6-98.5,37.2-115.9,19.8z"/>
<path id="XMLID_38_" class="st2" d="M-451.6,117.9c-0.5-55.4,45.3-103.1,102.3-104.5c56.4-1.5,104.4,42.4,107.8,99
	c3.6,60.5-44.9,109.9-102.3,111.3C-401.8,225.2-452.2,178.2-451.6,117.9z M-360.2,99.1c0,3,0,4.7,0,6.4c0,22.7,0,45.4,0,68.1
	c0,4.2,0.5,8.3,4.2,10.7c5.6,3.7,11.8,3.2,17.6,0.9c5.2-2,5.9-7.1,5.9-12.2c-0.1-22.7,0-45.4,0-68.1c0-1.6,0-3.3,0-5.9
	c10.4,10.8,19.8,20.7,29.3,30.5c5.7,5.9,11.2,5.9,17.1,0.1c1-1,2.1-2,3-3.1c4.4-4.8,4.5-10.5,0-15c-18.4-18.5-36.8-37-55.3-55.4
	c-5.3-5.3-10.6-5.2-16,0.1c-18.3,18.2-36.5,36.4-54.6,54.6c-5.4,5.5-5.3,10.7,0.1,16.4c0.7,0.7,1.3,1.4,2,2.1
	c6.3,6.2,11.6,6.2,17.8-0.2C-379.8,119.5-370.5,109.7-360.2,99.1z"/>
<path id="XMLID_90_" class="st1" d="M118.4,100L147,71.3c2.8-2.8,5.2-5.8,4.3-10c-1.3-6.2-5.8-10-11.1-12.3c-4.8-2.1-8.6,0.8-12,4.2
	L100,81.5L71.8,53.2c-3.4-3.4-7.2-6.3-12-4.2c-5.3,2.3-9.9,6.2-11.1,12.3c-0.8,4.1,1.6,7.2,4.3,10L81.6,100L53,128.7
	c-2.8,2.8-5.2,5.8-4.3,10c1.3,6.2,5.8,10,11.1,12.3c4.8,2.1,8.6-0.8,12-4.2l28.2-28.3l28.2,28.3c3.4,3.4,7.2,6.3,12,4.2
	c5.3-2.3,9.9-6.2,11.1-12.3c0.8-4.1-1.6-7.2-4.3-10L118.4,100z"/>
</svg>
