<?xml version="1.0" encoding="utf-8"?>
<!-- Generator: Adobe Illustrator 19.0.0, SVG Export Plug-In . SVG Version: 6.00 Build 0)  -->
<svg version="1.1" id="Layer_1" xmlns="http://www.w3.org/2000/svg" xmlns:xlink="http://www.w3.org/1999/xlink" x="0px" y="0px"
	 viewBox="0 0 928.6 1000" style="enable-background:new 0 0 928.6 1000;" xml:space="preserve">
<style type="text/css">
	.st0{fill:#FFFFFF;}
</style>
<g id="XMLID_1_">
	<path id="XMLID_3_" class="st0" d="M408,825.7L408,825.7C408,825.7,408,825.7,408,825.7z"/>
	<path id="XMLID_9_" class="st0" d="M892,283.5c-23.4-55.3-56.9-104.9-99.5-147.6C749.9,93.4,700.3,59.9,645,36.5
		C587.7,12.3,526.9,0,464.3,0S340.8,12.3,283.5,36.5C228.2,59.9,178.6,93.4,136,136c-42.6,42.6-76.1,92.3-99.5,147.6
		C12.3,340.8,0,401.6,0,464.3S12.3,587.7,36.5,645c23.4,55.3,56.9,104.9,99.5,147.6c42.6,42.6,92.7,76.1,148,99.5
		c40.1,17,81,27.9,124,33.1v-99.4c0,0,0,0,0,0v-49.9V594h56.5c42.4,0,78.1-7.3,106.3-17.8c28.4-10.6,53.5-27.4,74.6-48.3
		c16.9-16.9,30.3-38.1,39.8-61.9c9.5-23.7,14.3-49.5,14.3-76c0-34-6.6-63.7-19.7-88.1c-13-24.3-31.3-44.6-54.3-60.4
		C605.9,228,583.1,220,557.7,214c-24.9-5.9-55.2-7-90-7H307v553.6v0v33.8C184,735.6,98.6,609.7,98.6,464.3
		c0-201.7,164-365.8,365.7-365.8s366.1,164.1,366.1,365.8c0,135.3-73.8,253.7-183.2,317c-17.9,10.3-36.2,19.2-56.2,26.4v-95.1
		L447.3,856.3L591,1000v-91.9c17-2.9,33.9-7.4,54.5-16.1c55.3-23.4,104.7-56.9,147.3-99.5c42.6-42.6,76-92.3,99.4-147.6
		c24.2-57.3,36.4-118.1,36.4-180.7S916.3,340.8,892,283.5z M408,298h55c23,0,42.4-0.3,57.7,2.8c14.5,3,27.3,7.1,38,14.2
		c12.1,8.1,20.9,17.7,26.8,30.4c6,13,9.1,28.5,9.1,46.4c0,16.7-2.3,31.3-6.9,43.5c-4.5,12-11.9,23.3-22,33.6
		c-11,11.2-25.1,21.3-41.9,25.8c-18,4.7-42.2,9.3-72,9.3H408V298z"/>
</g>
</svg>
