<?xml version="1.0" encoding="utf-8"?>
<!-- Generator: Adobe Illustrator 19.0.0, SVG Export Plug-In . SVG Version: 6.00 Build 0)  -->
<svg version="1.1" id="Layer_1" xmlns="http://www.w3.org/2000/svg" xmlns:xlink="http://www.w3.org/1999/xlink" x="0px" y="0px"
	 viewBox="0 0 26.3 26" style="enable-background:new 0 0 26.3 26;" xml:space="preserve">
<style type="text/css">
	.st0{fill:#252525;}
	.st1{fill:#E9E9E9;}
</style>
<g id="XMLID_1_">
	<path id="XMLID_13_" class="st0" d="M-31.1-120.2c0-1.3,0-2.6,0-3.9c0.2-1.3,0.3-2.6,0.6-3.9c0.7-2.3,1.5-4.6,2.3-6.9
		c17.2,0,34.4,0,51.6,0c0.1,0.3,0.2,0.5,0.3,0.8c0.7,2.1,1.5,4.2,2.1,6.4c0.3,1.3,0.4,2.6,0.6,3.9c0,1.1,0,2.3,0,3.4
		c0,0.2-0.1,0.3-0.1,0.5c-0.2,3.4-1.2,6.6-2.5,9.7c-0.2,0.6-0.6,0.8-1.2,0.8c-7.1,0-14.2,0-21.3,0c-9.5,0-18.9,0-28.4,0
		c-0.7,0-1-0.2-1.3-0.8c-0.6-1.8-1.3-3.5-1.7-5.3C-30.6-117-30.8-118.6-31.1-120.2z M-10.5-123.3c-0.2-0.4-0.3-0.7-0.4-0.9
		c-0.9-2.1-1.8-4.3-2.7-6.4c-0.2-0.5-0.5-0.7-1-0.7c-2.2,0-4.4,0-6.6,0c-0.2,0-0.5,0-1,0.1c0.8,0.5,1.5,0.8,2,1.1
		c1.1,0.7,1.2,1.3,0.7,2.4c-1.4,3.1-2.8,6.2-4.3,9.3c-0.7,1.4-1.8,2.7-2.7,4c-0.1,0.2-0.3,0.4-0.5,0.6c3,0,5.9,0,9,0
		c-0.7-0.6-1.2-1-1.7-1.5c-1-1-1.1-1.7-0.5-2.9c0.8-1.8,1.6-3.5,2.4-5.3c0.1-0.3,0.3-0.6,0.5-1.1c1.8,4.2,3.5,8.2,5.2,12.2
		c0.1,0,0.2,0,0.2,0c1.8-4,3.7-8,5.6-12.2c0.2,0.5,0.4,0.8,0.5,1c0.8,1.9,1.6,3.8,2.4,5.7c0.7,1.5,0.8,2.9-0.8,3.9c0,0,0,0.1,0,0.2
		c3.3,0,6.5,0,9.6,0c-0.8-1.3-1.8-2.5-2.5-3.9c-1.6-3.4-3-6.9-4.4-10.4c-0.7-1.6-0.5-2,0.8-3c0,0,0-0.1,0.1-0.2c-3,0-6,0-9.3,0
		c0.5,0.4,0.9,0.6,1.2,0.8c0.8,0.6,0.9,1.2,0.6,2C-8.8-126.8-9.6-125.1-10.5-123.3z M6-126.9c0-0.4-0.1-0.7-0.1-0.9
		c0-1.2,0.6-2,1.6-2c1,0,1.8,0.7,1.6,2c-0.2,1.2-0.5,2.4-1.1,3.4c-1.1,1.9-2.5,3.6-3.8,5.4c-0.2,0.2-0.3,0.5-0.6,0.8
		c2.8,0,5.4,0,8.1,0c0-1.2,0-2.4,0-3.5c-0.3,0.4-0.5,0.8-0.7,1.2c-0.1,0.2-0.3,0.5-0.5,0.5c-1.3,0-2.6,0-4.1,0c1.1-1.1,2-2.1,2.8-3
		c0.8-0.9,1.7-1.9,2.3-3c0.8-1.5,0.3-3.1-0.9-3.9c-1.9-1.3-4.9-1-6.5,0.7C4.7-128.6,5.3-127.9,6-126.9z M20.1-118.3
		c0-0.1,0.1-0.1,0.1-0.2c-0.1-0.1-0.3-0.3-0.4-0.4c-1.1-0.4-1.5-1.1-1.4-2.2c0-2.2,0-4.4,0-6.7c0-1,0-2,0-3.2
		c-0.3,0.1-0.5,0.1-0.6,0.2c-1,1-2.2,1.6-3.5,2.1c-0.2,0.1-0.3,0.3-0.5,0.6c0.7,0,1.2,0.1,1.8,0.1c0,2.6,0,5,0,7.5
		c0,0.8-0.2,1.3-1,1.4c-0.3,0.1-0.5,0.3-0.7,0.5c0,0.1,0.1,0.1,0.1,0.2C16-118.3,18-118.3,20.1-118.3z"/>
</g>
<image style="overflow:visible;" width="76" height="76" id="XMLID_3_" xlink:href="../../../src/Sets/M21bg.jpg"  transform="matrix(1 0 0 1 67.1993 -51.3246)">
</image>
<rect id="XMLID_52_" x="67.2" y="44.7" class="st1" width="76" height="18"/>
<g id="XMLID_76_">
	<path id="XMLID_120_" class="st0" d="M0,12c0.1-0.8,0.3-1.8,0.5-2.6C1.2,6.9,3,4.3,4.8,3.1C4.6,5.3,4.3,7.5,4.1,9.7
		c-0.3,2.2-0.5,4.4-0.8,6.6c2,0.2,3.9,0.5,6,0.7c-0.1,0.8-0.2,1.6-0.4,2.4c-0.1,0.4-0.5,0.6-0.9,0.6c-1.2,0-2.1-0.5-3-1.3
		c-2.8-2.3-4-6.6-2-10.2C3.1,8.4,3.6,8,3,7.7C2.6,7.5,2.6,8.1,2.4,8.4C-0.1,14,2.2,20.7,7.7,23.5C8,23.7,8.5,24,8.5,24
		s-0.2,1.1-0.2,1.4c-2.6-1-4.6-2.6-6.1-4.9c-1.2-1.9-2-3.9-2.2-6.1C0,14.3-0.1,12.8,0,12z"/>
	<path id="XMLID_119_" class="st0" d="M26.3,14.1c-0.1,0.8-0.3,1.8-0.5,2.7c-0.7,2.5-2.2,4.6-4.3,6.4c0.5-4.5,1-8.9,1.6-13.3
		c-2-0.2-3.9-0.5-6-0.7c0.1-0.8,0.2-1.6,0.4-2.4c0.1-0.6,0.7-0.7,1.2-0.6C20,6.2,21.1,7,22.1,8c2.3,2.4,3.1,6.2,1.3,9.5
		c-0.1,0.3-0.6,0.7-0.1,0.9c0.4,0.2,0.5-0.4,0.6-0.7c2.5-5.7,0-12.5-5.6-15.3c-0.2-0.1-0.3-0.2-0.5-0.3c0.1-0.5,0.1-0.9,0.2-1.4
		c1.2,0.4,2.2,1,3.2,1.7c3,2.4,4.7,5.5,5.1,9.3C26.3,11.9,26.4,13.2,26.3,14.1z"/>
	<path id="XMLID_118_" class="st0" d="M20.1,26c-3.6-0.4-7.2-0.8-10.9-1.3c0.3-2.5,0.6-5,0.9-7.6c0.4,0,0.8,0.1,1.2,0.1
		c0.1,0.9,0,1.7,0.2,2.5c0.4,1.7,1.2,3,3,3.4c1.4,0.3,2.6-0.3,3.5-1.3c1.9-2.1,2.4-4.5,1.5-7.2c-0.5-1.4-1.4-2.4-3-2.6
		c-0.7-0.1-0.8-0.1-0.9,0.6c-0.2,1.4-0.3,2.7-0.5,4.1C11.5,16.4,8,16,4.3,15.5C4.9,10.4,5.5,5.2,6.1,0C9.7,0.4,13.3,0.8,17,1.3
		c-0.3,2.5-0.6,5-0.9,7.6c-0.4,0-0.8-0.1-1.2-0.1c0.1-1.3,0-2.5-0.6-3.6c-1.1-2.2-3.4-2.8-5.5-1.4c-2.6,1.9-3.4,6.5-1.5,9
		C8,13.5,8.8,14,9.8,14.1c0.5,0,0.6-0.1,0.7-0.6c0.1-1.4,0.3-2.9,0.5-4.3c3.6,0.4,7.2,0.9,10.9,1.3C21.3,15.6,20.7,20.8,20.1,26z"/>
	<path id="XMLID_117_" class="st0" d="M12.2,17.4c1.2,0.1,2.5,0.3,3.7,0.4c0.2-1.6,0.4-3.2,0.6-4.8c0.7,0.1,1.2,0.4,1.6,0.9
		c1.2,1.5,1.2,3.2,0.7,5c-0.3,1.2-1,2.2-2,2.9c-1.4,1-3.1,0.6-4-0.9C12.3,20,12,18.7,12.2,17.4z"/>
	<path id="XMLID_116_" class="st0" d="M14,8.6c-1.2-0.1-2.4-0.3-3.6-0.4c-0.2,1.7-0.4,3.3-0.6,4.9C8.6,13,8,12.3,7.6,11.3
		C6.6,9.1,7.3,6.3,9,4.7c1.6-1.4,3.6-1,4.6,0.9C14,6.5,14.2,7.7,14,8.6z"/>
</g>
</svg>
