<?xml version="1.0" encoding="utf-8"?>
<!-- Generator: Adobe Illustrator 19.0.0, SVG Export Plug-In . SVG Version: 6.00 Build 0)  -->
<svg version="1.1" id="Layer_1" xmlns="http://www.w3.org/2000/svg" xmlns:xlink="http://www.w3.org/1999/xlink" x="0px" y="0px"
	 viewBox="0 0 57.4 25.6" style="enable-background:new 0 0 57.4 25.6;" xml:space="preserve">
<style type="text/css">
	.st0{fill:#252525;}
</style>
<g id="XMLID_1_">
	<path id="XMLID_13_" class="st0" d="M0,14.7c0-1.3,0-2.6,0-3.9c0.2-1.3,0.3-2.6,0.6-3.9C1.3,4.6,2.1,2.3,2.9,0
		c17.2,0,34.4,0,51.6,0c0.1,0.3,0.2,0.5,0.3,0.8c0.7,2.1,1.5,4.2,2.1,6.4c0.3,1.3,0.4,2.6,0.6,3.9c0,1.1,0,2.3,0,3.4
		c0,0.2-0.1,0.3-0.1,0.5c-0.2,3.4-1.2,6.6-2.5,9.7c-0.2,0.6-0.6,0.8-1.2,0.8c-7.1,0-14.2,0-21.3,0c-9.5,0-18.9,0-28.4,0
		c-0.7,0-1-0.2-1.3-0.8C2,23,1.3,21.3,0.8,19.5C0.4,17.9,0.3,16.3,0,14.7z M20.6,11.6c-0.2-0.4-0.3-0.7-0.4-0.9
		c-0.9-2.1-1.8-4.3-2.7-6.4c-0.2-0.5-0.5-0.7-1-0.7c-2.2,0-4.4,0-6.6,0c-0.2,0-0.5,0-1,0.1c0.8,0.5,1.5,0.8,2,1.1
		C12,5.5,12.1,6,11.6,7.2c-1.4,3.1-2.8,6.2-4.3,9.3c-0.7,1.4-1.8,2.7-2.7,4c-0.1,0.2-0.3,0.4-0.5,0.6c3,0,5.9,0,9,0
		c-0.7-0.6-1.2-1-1.7-1.5c-1-1-1.1-1.7-0.5-2.9c0.8-1.8,1.6-3.5,2.4-5.3c0.1-0.3,0.3-0.6,0.5-1.1c1.8,4.2,3.5,8.2,5.2,12.2
		c0.1,0,0.2,0,0.2,0c1.8-4,3.7-8,5.6-12.2c0.2,0.5,0.4,0.8,0.5,1c0.8,1.9,1.6,3.8,2.4,5.7c0.7,1.5,0.8,2.9-0.8,3.9c0,0,0,0.1,0,0.2
		c3.3,0,6.5,0,9.6,0c-0.8-1.3-1.8-2.5-2.5-3.9c-1.6-3.4-3-6.9-4.4-10.4c-0.7-1.6-0.5-2,0.8-3c0,0,0-0.1,0.1-0.2c-3,0-6,0-9.3,0
		c0.5,0.4,0.9,0.6,1.2,0.8c0.8,0.6,0.9,1.2,0.6,2C22.2,8.2,21.4,9.8,20.6,11.6z M37.1,8C37,7.6,37,7.3,37,7.1c0-1.2,0.6-2,1.6-2
		c1,0,1.8,0.7,1.6,2c-0.2,1.2-0.5,2.4-1.1,3.4c-1.1,1.9-2.5,3.6-3.8,5.4c-0.2,0.2-0.3,0.5-0.6,0.8c2.8,0,5.4,0,8.1,0
		c0-1.2,0-2.4,0-3.5c-0.3,0.4-0.5,0.8-0.7,1.2c-0.1,0.2-0.3,0.5-0.5,0.5c-1.3,0-2.6,0-4.1,0c1.1-1.1,2-2.1,2.8-3
		c0.8-0.9,1.7-1.9,2.3-3c0.8-1.5,0.3-3.1-0.9-3.9c-1.9-1.3-4.9-1-6.5,0.7C35.7,6.3,36.3,7.1,37.1,8z M51.1,16.7
		c0-0.1,0.1-0.1,0.1-0.2c-0.1-0.1-0.3-0.3-0.4-0.4c-1.1-0.4-1.5-1.1-1.4-2.2c0-2.2,0-4.4,0-6.7c0-1,0-2,0-3.2
		c-0.3,0.1-0.5,0.1-0.6,0.2c-1,1-2.2,1.6-3.5,2.1c-0.2,0.1-0.3,0.3-0.5,0.6C45.5,7,46,7,46.5,7c0,2.6,0,5,0,7.5c0,0.8-0.2,1.3-1,1.4
		c-0.3,0.1-0.5,0.3-0.7,0.5c0,0.1,0.1,0.1,0.1,0.2C47,16.7,49.1,16.7,51.1,16.7z"/>
</g>
</svg>
