<?xml version="1.0" encoding="utf-8"?>
<!-- Generator: Adobe Illustrator 19.0.0, SVG Export Plug-In . SVG Version: 6.00 Build 0)  -->
<svg version="1.1" id="Layer_1" xmlns="http://www.w3.org/2000/svg" xmlns:xlink="http://www.w3.org/1999/xlink" x="0px" y="0px"
	 viewBox="-34.8 38.1 42.1 25.1" style="enable-background:new -34.8 38.1 42.1 25.1;" xml:space="preserve">
<style type="text/css">
	.st0{fill:#252525;}
</style>
<g id="XMLID_25_">
	<path id="XMLID_90_" class="st0" d="M-13.8,38.1c1.7,1.8,3.4,3.5,5,5.2c1.7,1.8,3.4,3.5,5.1,5.3c0.7,0.7,1.4,1.3,2.3,1.6
		c0.3,0.1,0.5,0.2,0.8,0.4c-0.1,0.1-0.1,0.1-0.1,0.1c-1.5,0.5-2.6,1.5-3.7,2.6c-2.9,3.1-5.9,6.2-8.9,9.3c-0.1,0.2-0.3,0.3-0.4,0.5
		c-0.5-0.5-1-1-1.5-1.4c-3-3.2-6-6.4-9.1-9.5c-0.7-0.7-1.7-1.1-2.6-1.7c0,0,0.1-0.1,0.2-0.1c1.5-0.4,2.5-1.4,3.5-2.5
		c2.9-3.1,5.9-6.1,8.8-9.2C-14.3,38.6-14.1,38.4-13.8,38.1z M-20.2,50.6c2.2,2.2,4.3,4.3,6.4,6.4c2.1-2.1,4.2-4.2,6.3-6.3
		c-2.1-2.1-4.3-4.3-6.4-6.4C-15.9,46.4-18.1,48.5-20.2,50.6z"/>
	<path id="XMLID_89_" class="st0" d="M-8.6,59.2c1.2-1.1,2.3-2.2,3.4-3.3c0.1-0.1,0.4-0.1,0.7-0.2c1.2,0,2.3,0,3.5,0
		c3.1,0.1,5.9-0.6,8.2-2.9c-1.5,5.4-5.3,8.8-10.8,9.4c0-0.5,0.1-1,0-1.4c-0.2-1-1.1-1.6-2.4-1.7C-6.8,59.1-7.6,59.2-8.6,59.2z"/>
	<path id="XMLID_88_" class="st0" d="M7.2,48.6c-2.3-2.2-4.9-2.9-7.9-2.9c-1.3,0-2.6,0-3.9,0c-0.3,0-0.7-0.2-0.9-0.4
		c-1-1-2-2-3.1-3.1c1.1,0,2,0.1,2.8,0c1.8-0.2,2.5-1.2,2.1-3C0.9,38.9,6,43.3,7.2,48.6z"/>
	<path id="XMLID_87_" class="st0" d="M-19.1,59.2c-1.1,0.1-2.1,0-3.1,0.2c-1.6,0.2-2.2,1.4-1.8,2.9c-4,0.6-10-4.5-10.8-9.3
		c1.9,1.9,4.3,2.7,6.8,2.8c1.5,0.1,3,0.1,4.5,0c0.7,0,1.1,0.2,1.6,0.7C-21,57.4-20.1,58.3-19.1,59.2z"/>
	<path id="XMLID_86_" class="st0" d="M-23.9,39.1c-0.5,1.6,0.1,2.7,1.7,3c1,0.2,2,0.1,3.1,0.2c-1.1,1.1-2.2,2.2-3.3,3.2
		c-0.1,0.1-0.5,0.1-0.7,0.1c-1.3,0-2.5,0-3.8,0c-3,0-5.7,0.7-7.9,2.8C-34.2,43.9-29.1,39.5-23.9,39.1z"/>
</g>
</svg>
