<?xml version="1.0" encoding="utf-8"?>
<!-- Generator: Adobe Illustrator 19.0.0, SVG Export Plug-In . SVG Version: 6.00 Build 0)  -->
<svg version="1.1" id="Layer_1" xmlns="http://www.w3.org/2000/svg" xmlns:xlink="http://www.w3.org/1999/xlink" x="0px" y="0px"
	 viewBox="-35.2 49.5 28.5 32" style="enable-background:new -35.2 49.5 28.5 32;" xml:space="preserve">
<style type="text/css">
	.st0{fill:#252525;}
</style>
<g>
	<path class="st0" d="M-34.9,55.6l7-6.2l3.6,4l-7,6.2L-34.9,55.6z M-7,55.6l-3.6,4l-7-6.2l3.6-4L-7,55.6z M-35.2,71.6l3.3-3.1
		l5.4,7.5l-2.4,2.2L-35.2,71.6L-35.2,71.6z M-6.7,71.6l-3.3-3.1l-5.4,7.5l2.4,2.2L-6.7,71.6L-6.7,71.6z M-8.8,63.9l-7.6,0.8
		l-4.6,6.6l-4.5-6.6l-7.6-0.8l12.2,17.5C-20.9,81.4-8.8,63.9-8.8,63.9z M-20.9,52.5l-12.2,10.8l7.7,0.8l4.5-4l4.4,4l7.7-0.8
		L-20.9,52.5L-20.9,52.5z"/>
</g>
</svg>
